<svg viewBox="0 0 400 250" xmlns="http://www.w3.org/2000/svg" role="img" aria-label="Document with a flame motif">
<rect width="400" height="250" fill="#4A5233"/>
<rect x="130" y="35" width="140" height="180" fill="#F2EEE1" stroke="#1C1F17" stroke-width="2"/>
<line x1="150" y1="65" x2="250" y2="65" stroke="#5C6B63" stroke-width="3"/>
<line x1="150" y1="85" x2="250" y2="85" stroke="#5C6B63" stroke-width="3"/>
<line x1="150" y1="105" x2="220" y2="105" stroke="#5C6B63" stroke-width="3"/>
<path d="M200 130 C190 150 175 155 180 175 C182 190 198 195 200 195 C202 195 218 190 220 175 C225 155 210 150 200 130 Z" fill="#B23A24"/>
<path d="M200 150 C196 160 190 165 193 176 C195 183 200 185 200 185 C200 185 205 183 207 176 C210 165 204 160 200 150 Z" fill="#A99A6B"/>
</svg>
